<svg id="Layer_1" enable-background="new 0 0 512 512" height="512" viewBox="0 0 512 512" width="512" xmlns="http://www.w3.org/2000/svg"><g><path d="m208.053 396.741v31.521c0 12.054-5.776 23.247-15.263 29.575l-22.915 15.285h172.249l-22.915-15.285c-9.487-6.328-15.263-17.521-15.263-29.575v-31.521c-31.531 0-64.361 0-95.893 0z" fill="#bed8fb"/><path d="m208.053 396.741v31.521c0 12.054-5.776 23.247-15.263 29.575l-22.915 15.285h55.596l.483-.322c9.487-6.328 15.263-17.521 15.263-29.575v-21.822c0-5.357 4.342-9.699 9.699-9.699h53.03v-14.963z" fill="#9dc6fb"/><path d="m358.16 472.017h-204.32c-5.689 0-10.301 4.612-10.301 10.301v11.535c0 5.689 4.612 10.301 10.301 10.301h204.32c5.689 0 10.301-4.612 10.301-10.301v-11.535c0-5.69-4.612-10.301-10.301-10.301z" fill="#dfebfa"/><path d="m200.63 493.852v-11.535c0-5.689 4.612-10.301 10.301-10.301h-57.091c-5.689 0-10.301 4.612-10.301 10.301v11.535c0 5.689 4.612 10.301 10.301 10.301h57.091c-5.689.001-10.301-4.611-10.301-10.301z" fill="#bed8fb"/><g><g><path d="m482.311 31.736h-452.622c-16.371 0-29.689 13.318-29.689 29.689v306.986c0 16.371 13.318 29.689 29.689 29.689h452.622c16.371 0 29.689-13.318 29.689-29.689v-306.986c0-16.371-13.318-29.689-29.689-29.689z" fill="#695d67"/></g></g><path d="m34.342 368.412v-306.987c0-16.371 13.318-29.689 29.689-29.689h-34.342c-16.371 0-29.689 13.318-29.689 29.689v306.986c0 16.371 13.318 29.689 29.689 29.689h34.341c-16.37.001-29.688-13.318-29.688-29.688z" fill="#554e56"/><g><path d="m32.137 100.02v2.06 259.611c0 2.36 1.912 4.272 4.272 4.272h439.182c2.359 0 4.272-1.912 4.272-4.272 0-6.921 0-186.243 0-261.671z" fill="#dfebfa"/></g><path d="m63.045 361.691v-259.61-2.06h-30.908v2.06 259.611c0 2.36 1.912 4.272 4.272 4.272h30.907c-2.359-.001-4.271-1.913-4.271-4.273z" fill="#bed8fb"/><path d="m475.591 63.873h-398.09v38.208h402.362c0-17.883 0-30.339 0-33.936 0-2.36-1.913-4.272-4.272-4.272z" fill="#80b4fb"/><path d="m78.531 63.873h-42.122c-2.359 0-4.272 1.912-4.272 4.272v33.936h46.394z" fill="#ff656f"/><path d="m67.315 63.873h-30.906c-2.359 0-4.272 1.912-4.272 4.272v33.936h30.906v-33.936c0-2.36 1.913-4.272 4.272-4.272z" fill="#ff4756"/><path d="m392.399 144.216c-3.835-71.692-63.177-128.644-135.826-128.644-72.648 0-131.99 56.952-135.825 128.644z" fill="#9dc6fb"/><path d="m291.943 20.223c-11.279-3.029-23.134-4.651-35.369-4.651-72.648 0-131.99 56.952-135.825 128.644h70.739c3.188-59.618 44.765-109.036 100.455-123.993z" fill="#80b4fb"/><path d="m400.114 143.804c-4.023-75.216-65.995-135.958-143.54-135.958-77.578 0-139.519 60.772-143.541 135.957-.236 4.423 3.291 8.139 7.715 8.139h271.651c4.43 0 7.951-3.72 7.715-8.138zm-55.439-85.474c-5.611 5.319-11.619 10.064-17.952 14.224-5.497-14.479-12.98-28.635-23.11-40.354 15.169 5.976 29.166 14.853 41.062 26.13zm-135.141-26.13c-10.111 11.697-17.601 25.842-23.11 40.354-6.332-4.159-12.34-8.904-17.951-14.223 11.851-11.235 25.834-20.133 41.061-26.131zm39.314-8.041v68.969c-17.196-1.005-33.682-5.359-48.754-12.763 11.039-30.375 28.782-51.762 48.754-56.206zm15.452 0c19.971 4.444 37.714 25.831 48.754 56.206-15.072 7.404-31.558 11.758-48.754 12.763zm-106.416 45.415c7.288 6.906 15.166 12.958 23.524 18.112-4.33 15.172-7.101 31.665-8.128 48.804h-44.125c2.966-25.36 13.288-48.366 28.729-66.916zm37.531 25.699c16.582 7.804 34.634 12.359 53.432 13.338v27.879h-60.091c.944-14.588 3.251-28.478 6.659-41.217zm68.885 41.217v-27.879c18.798-.979 36.85-5.534 53.432-13.338 3.409 12.739 5.716 26.629 6.659 41.217zm75.567 0c-1.026-17.139-3.798-33.631-8.128-48.803 8.358-5.154 16.237-11.206 23.524-18.112 15.441 18.551 25.763 41.556 28.728 66.916h-44.124z" fill="#bed8fb"/><path d="m420.002 151.599h-326.856c-9.095 0-16.536 7.441-16.536 16.536v104.04c0 9.095 7.441 16.536 16.536 16.536h326.856c9.095 0 16.536-7.441 16.536-16.536v-104.04c-.001-9.095-7.442-16.536-16.536-16.536z" fill="#ff656f"/><path d="m117.326 272.176v-104.04c0-9.095 7.441-16.536 16.536-16.536h-40.716c-9.095 0-16.536 7.441-16.536 16.536v104.04c0 9.095 7.441 16.536 16.536 16.536h40.716c-9.095-.001-16.536-7.442-16.536-16.536z" fill="#ff4756"/><g fill="#dfebfa"><path d="m176.296 248.852 22.92-51.066c1.747-3.893.008-8.466-3.885-10.213-3.894-1.747-8.465-.008-10.213 3.885l-15.525 34.589-8.679-21.32c-1.221-2.996-4.223-4.955-7.524-4.798-3.105.15-5.692 2.108-6.788 4.798l-8.679 21.32-15.525-34.59c-1.747-3.892-6.317-5.632-10.213-3.885-3.893 1.747-5.632 6.319-3.885 10.213l22.92 51.066c1.243 2.779 4.067 4.564 7.046 4.564h.004.004c3.056 0 5.956-1.876 7.151-4.815l8.333-20.469 8.332 20.469c1.187 2.918 4.082 4.815 7.151 4.815h.004.004c3.058.001 5.831-1.844 7.047-4.563z"/><path d="m204.178 237.962c-4.267 0-7.726 3.459-7.726 7.726v2.565c0 4.267 3.459 7.726 7.726 7.726s7.726-3.459 7.726-7.726v-2.565c0-4.267-3.459-7.726-7.726-7.726z"/><path d="m305.016 237.962c-4.267 0-7.726 3.459-7.726 7.726v2.565c0 4.267 3.459 7.726 7.726 7.726s7.726-3.459 7.726-7.726v-2.565c0-4.267-3.459-7.726-7.726-7.726z"/><path d="m277.134 248.852 22.92-51.066c1.747-3.893.008-8.466-3.885-10.213-3.894-1.747-8.465-.008-10.213 3.885l-15.525 34.589-8.679-21.32c-1.221-2.996-4.223-4.955-7.524-4.798-3.105.15-5.692 2.108-6.788 4.798l-8.679 21.32-15.525-34.59c-1.747-3.892-6.317-5.632-10.213-3.885-3.893 1.747-5.632 6.319-3.885 10.213l22.92 51.066c1.243 2.779 4.067 4.564 7.046 4.564h.004.004c3.056 0 5.956-1.876 7.151-4.815l8.333-20.469 8.332 20.469c1.187 2.918 4.082 4.815 7.151 4.815h.004.004c3.059.001 5.831-1.844 7.047-4.563z"/><path d="m377.973 248.852 22.92-51.066c1.747-3.893.008-8.466-3.885-10.213-3.894-1.747-8.465-.008-10.213 3.885l-15.525 34.589-8.679-21.32c-1.221-2.996-4.223-4.955-7.524-4.798-3.105.15-5.692 2.108-6.788 4.798l-8.679 21.32-15.525-34.59c-1.747-3.892-6.317-5.632-10.213-3.885-3.893 1.747-5.632 6.319-3.885 10.213l22.92 51.066c1.243 2.779 4.067 4.564 7.046 4.564h.004.004c3.056 0 5.956-1.876 7.151-4.815l8.333-20.469 8.332 20.469c1.187 2.918 4.082 4.815 7.151 4.815h.004.004c3.058.001 5.831-1.844 7.047-4.563z"/></g></g></svg>