<svg width="389" height="389" viewBox="0 0 389 389" fill="none" xmlns="http://www.w3.org/2000/svg">
<path d="M182.918 5.17639C178.5 7.56439 173.247 10.3106 171.336 11.3852C168.351 12.9374 166.799 12.9374 161.784 11.8628C143.039 7.56439 142.322 7.56439 137.188 9.83298C134.442 11.027 129.666 15.0866 126.442 18.9074C123.099 22.6088 119.039 26.1908 117.248 26.9072C115.338 27.6236 109.248 28.4594 103.517 28.6982C88.5922 29.534 85.846 31.4444 78.5626 46.25C74.2642 55.0856 71.3986 57.3542 60.8914 60.6974C46.444 65.1152 43.1008 69.2942 40.5934 85.5326C39.877 89.7116 38.683 94.2488 37.7278 95.5622C36.892 96.8756 32.2354 100.696 27.34 104.04C21.4894 108.099 17.788 111.681 16.2358 114.786C13.9672 119.084 13.9672 120.159 15.2806 129.949C16.9522 142.486 16.2358 144.755 7.75839 154.904C4.65399 158.486 1.66899 163.501 0.833191 165.889C-0.480209 170.545 -0.599609 170.187 6.08679 187.978C8.83299 195.381 8.83299 195.5 6.68379 201.112C-0.599609 220.216 -0.599609 220.096 1.54959 225.708C2.62419 228.574 5.96739 233.827 8.95239 237.29C16.3552 246.006 16.8328 247.678 15.2806 259.498C13.3702 274.423 15.5194 278.722 30.0862 288.513C37.489 293.527 39.0412 296.154 40.9516 306.661C42.6232 316.691 45.25 322.422 49.1902 325.049C50.7424 326.004 55.7572 328.153 60.4138 329.706C72.8314 333.885 73.5478 334.482 78.2044 343.914C82.7416 352.869 85.9654 357.168 90.025 359.436C91.3384 360.153 98.0248 361.108 104.711 361.585L117.129 362.302L125.606 370.779C130.382 375.316 135.397 379.734 136.83 380.451C140.412 382.242 148.65 382.122 155.576 379.973C163.814 377.466 170.501 377.704 174.799 380.689C189.605 390.719 195.933 391.197 209.067 383.555C219.335 377.585 223.395 376.988 233.186 379.973C240.588 382.242 248.588 382.242 252.767 380.092C254.558 379.137 259.215 374.958 263.274 370.779C271.155 362.302 273.185 361.466 286.08 361.466C290.259 361.466 295.512 360.75 297.662 359.794C302.199 357.884 306.975 352.272 309.84 345.228C313.661 336.034 316.766 333.049 326.198 330.303C330.855 328.989 336.467 326.721 338.616 325.527C343.272 322.661 346.854 315.258 347.929 306.542C349.123 296.751 351.392 293.169 359.033 288.274C373.122 279.319 375.391 274.662 373.481 259.857C372.764 254.603 372.525 249.111 372.884 247.558C373.242 246.006 376.466 241.23 380.048 236.812C389.958 224.753 390.435 220.932 383.749 205.649C379.928 197.052 380.048 193.47 384.465 183.321C390.674 168.993 389.958 165.053 377.779 150.606C372.645 144.516 372.525 144.397 373.6 125.054C374.197 114.547 372.167 111.084 361.063 103.562C356.168 100.219 351.63 96.5174 350.914 95.204C350.198 93.7712 348.765 88.637 347.929 83.7416C345.063 69.0554 342.198 65.354 330.735 61.6526C316.169 56.8766 315.572 56.399 309.721 45.1754C302.438 31.0862 299.93 29.534 283.453 28.4594L270.916 27.743L262.319 19.0268C250.857 7.56439 247.991 6.60919 233.783 10.3106C221.843 13.415 219.216 13.1762 211.216 8.04199C204.291 3.62418 197.724 0.877991 194.022 0.877991C192.47 0.877991 187.455 2.78839 182.918 5.17639ZM206.918 14.2508C216.828 20.1014 223.395 21.176 233.066 18.3104C236.648 17.2358 241.902 16.4 244.648 16.4C249.305 16.4 250.26 16.997 258.26 25.1162C267.931 35.0264 271.871 36.698 286.438 36.698C293.841 36.698 295.274 37.0562 297.9 39.683C299.453 41.2352 301.96 45.1754 303.273 48.2798C306.975 56.996 311.154 61.772 317.96 64.8764C321.303 66.4286 324.765 67.742 325.721 67.742C326.676 67.742 329.78 68.8166 332.526 70.2494C338.138 72.8762 339.452 75.503 340.765 86.249C342.198 96.6368 345.302 101.532 354.974 108.099C359.75 111.442 364.287 115.024 365.242 115.98C366.317 117.412 366.555 120.994 365.958 130.905C364.884 145.949 365.361 147.262 374.913 158.725C381.958 167.322 382.316 170.665 377.182 182.366C375.033 187.142 373.6 192.634 373.6 195.5C373.6 198.366 375.033 203.858 377.182 208.634C382.316 220.335 381.958 223.678 374.913 232.275C365.361 243.618 365.003 244.932 365.958 260.095C366.914 275.259 367.152 274.782 354.974 282.781C345.541 288.871 342.914 293.05 340.765 305.467C338.616 317.766 336.944 319.557 323.93 323.736C312.467 327.437 308.885 330.78 302.676 343.198C300.288 347.974 297.303 352.392 296.109 353.108C294.796 353.705 289.781 354.302 285.005 354.302C271.274 354.302 268.05 355.735 258.26 365.764C250.14 374.003 249.305 374.6 244.409 374.6C241.544 374.6 236.648 373.764 233.424 372.809C222.917 369.585 217.544 370.302 207.634 376.391C196.052 383.316 192.828 383.316 181.844 376.749C172.053 370.779 165.008 369.705 155.098 372.69C151.635 373.764 146.501 374.6 143.874 374.6C139.576 374.6 138.382 373.764 131.457 366.839C121.308 356.451 118.681 355.257 104.831 354.421C97.5472 353.944 92.6518 353.108 91.3384 352.033C90.1444 351.078 87.1594 346.063 84.652 341.049C79.5178 331.019 76.4134 327.915 68.4136 325.168C65.548 324.094 60.772 322.422 57.787 321.348C51.3394 319.079 49.6678 316.452 47.7574 304.87C45.6082 292.333 43.1008 288.871 31.3996 280.99C28.2952 278.961 24.7132 275.856 23.3998 274.065C21.1312 271.08 21.1312 270.244 22.4446 260.095C23.8774 250.305 23.758 248.991 21.6088 244.215C20.4148 241.35 17.3104 236.693 14.803 233.708C12.2956 230.723 9.42999 226.544 8.47479 224.514C6.68379 220.813 6.80319 220.216 10.9822 209.828C13.3702 203.977 15.4 197.53 15.4 195.5C15.4 193.47 13.7284 187.62 11.5792 182.605C6.32559 169.948 6.56439 167.322 13.4896 158.844C16.7134 155.023 20.4148 149.65 21.6088 146.785C23.758 142.009 23.8774 140.815 22.4446 130.905C21.1312 120.756 21.1312 119.92 23.3998 116.935C24.7132 115.144 29.2504 111.204 33.4294 108.219C43.2202 101.293 45.847 97.2338 47.638 86.4878C50.026 72.518 51.817 70.6076 66.2644 66.6674C74.6224 64.3988 78.8014 60.6974 84.1744 50.6678C91.219 37.4144 91.0996 37.4144 104.831 36.5786C111.398 36.101 117.965 35.0264 119.994 33.9518C121.905 32.9966 127.039 28.5788 131.337 24.2804C138.621 16.997 139.576 16.4 144.471 16.4C147.337 16.4 152.352 17.2358 155.576 18.191C165.486 21.176 170.142 20.579 180.769 14.609C192.948 7.80319 196.052 7.80319 206.918 14.2508Z" fill="#FF5757"/>
<path d="M184.336 23.8703C180.34 26.0305 175.588 28.5146 173.859 29.4867C171.159 30.8908 169.755 30.8908 165.219 29.9187C148.262 26.0305 147.614 26.0305 142.969 28.0826C140.485 29.1627 136.165 32.8349 133.249 36.2912C130.224 39.6394 126.552 42.8796 124.932 43.5277C123.204 44.1757 117.695 44.9318 112.511 45.1478C99.0101 45.9038 96.526 47.632 89.9375 61.0249C86.0492 69.0175 83.457 71.0696 73.9524 74.0938C60.8835 78.0901 57.8592 81.8704 55.5911 96.5594C54.943 100.34 53.863 104.444 52.9989 105.632C52.2429 106.82 48.0306 110.276 43.6023 113.301C38.3099 116.973 34.9616 120.213 33.5575 123.021C31.5054 126.91 31.5054 127.882 32.6935 136.738C34.2056 148.079 33.5575 150.131 25.889 159.312C23.0808 162.552 20.3806 167.088 19.6246 169.248C18.4365 173.461 18.3285 173.137 24.3769 189.23C26.8611 195.926 26.8611 196.034 24.9169 201.111C18.3285 218.392 18.3285 218.284 20.2726 223.36C21.2447 225.952 24.2689 230.705 26.9691 233.837C33.6656 241.722 34.0976 243.234 32.6935 253.926C30.9654 267.427 32.9095 271.316 46.0864 280.172C52.7829 284.709 54.187 287.085 55.9151 296.589C57.4272 305.662 59.8034 310.846 63.3676 313.223C64.7717 314.087 69.3081 316.031 73.5203 317.435C84.7531 321.215 85.4012 321.755 89.6135 330.288C93.7178 338.388 96.634 342.277 100.306 344.329C101.494 344.977 107.543 345.841 113.591 346.273L124.824 346.921L132.492 354.589C136.813 358.694 141.349 362.69 142.645 363.338C145.885 364.958 153.338 364.85 159.602 362.906C167.055 360.638 173.103 360.854 176.992 363.554C190.385 372.627 196.109 373.059 207.99 366.146C217.278 360.746 220.951 360.206 229.807 362.906C236.504 364.958 243.74 364.958 247.521 363.014C249.141 362.15 253.353 358.37 257.025 354.589C264.154 346.921 265.99 346.165 277.655 346.165C281.435 346.165 286.187 345.517 288.131 344.653C292.236 342.925 296.556 337.848 299.148 331.476C302.604 323.159 305.413 320.459 313.945 317.975C318.158 316.787 323.234 314.735 325.178 313.655C329.39 311.062 332.631 304.366 333.603 296.481C334.683 287.625 336.735 284.385 343.647 279.956C356.392 271.856 358.444 267.643 356.716 254.25C356.068 249.498 355.852 244.53 356.176 243.126C356.5 241.722 359.416 237.401 362.657 233.405C371.621 222.496 372.053 219.04 366.005 205.215C362.549 197.438 362.657 194.198 366.653 185.018C372.269 172.057 371.621 168.492 360.604 155.424C355.96 149.915 355.852 149.807 356.824 132.31C357.364 122.805 355.528 119.673 345.483 112.869C341.055 109.844 336.951 106.496 336.303 105.308C335.655 104.012 334.359 99.3676 333.603 94.9393C331.01 81.6544 328.418 78.3061 318.05 74.9579C304.873 70.6376 304.333 70.2056 299.04 60.0529C292.452 47.308 290.184 45.9038 275.279 44.9318L263.938 44.2837L256.161 36.3992C245.792 26.0305 243.2 25.1664 230.347 28.5146C219.547 31.3228 217.17 31.1068 209.934 26.4625C203.669 22.4662 197.729 19.982 194.381 19.982C192.977 19.982 188.44 21.7101 184.336 23.8703ZM206.046 32.0789C215.01 37.3712 220.951 38.3433 229.699 35.7511C232.94 34.7791 237.692 34.023 240.176 34.023C244.388 34.023 245.252 34.563 252.489 41.9076C261.238 50.8722 264.802 52.3843 277.979 52.3843C284.675 52.3843 285.971 52.7083 288.347 55.0845C289.752 56.4886 292.02 60.0529 293.208 62.861C296.556 70.7456 300.336 75.0659 306.493 77.8741C309.517 79.2782 312.649 80.4663 313.513 80.4663C314.377 80.4663 317.185 81.4383 319.67 82.7344C324.746 85.1106 325.934 87.4868 327.122 97.2075C328.418 106.604 331.226 111.032 339.975 116.973C344.295 119.997 348.4 123.237 349.264 124.101C350.236 125.397 350.452 128.638 349.912 137.602C348.94 151.211 349.372 152.399 358.012 162.768C364.385 170.545 364.709 173.569 360.064 184.154C358.12 188.474 356.824 193.442 356.824 196.034C356.824 198.627 358.12 203.595 360.064 207.915C364.709 218.5 364.385 221.524 358.012 229.301C349.372 239.561 349.048 240.749 349.912 254.466C350.776 268.183 350.992 267.751 339.975 274.988C331.442 280.496 329.066 284.277 327.122 295.509C325.178 306.634 323.666 308.254 311.893 312.034C301.524 315.383 298.284 318.407 292.668 329.64C290.508 333.96 287.807 337.956 286.727 338.604C285.539 339.144 281.003 339.684 276.683 339.684C264.262 339.684 261.346 340.981 252.489 350.053C245.144 357.506 244.388 358.046 239.96 358.046C237.368 358.046 232.94 357.29 230.023 356.426C220.519 353.509 215.658 354.157 206.694 359.666C196.217 365.93 193.301 365.93 183.364 359.99C174.507 354.589 168.135 353.617 159.17 356.318C156.038 357.29 151.394 358.046 149.018 358.046C145.129 358.046 144.049 357.29 137.785 351.025C128.604 341.629 126.228 340.548 113.699 339.792C107.111 339.36 102.682 338.604 101.494 337.632C100.414 336.768 97.7141 332.232 95.4459 327.696C90.8016 318.623 87.9934 315.815 80.7569 313.331C78.1647 312.359 73.8444 310.846 71.1442 309.874C65.3118 307.822 63.7997 305.446 62.0715 294.969C60.1274 283.628 57.8592 280.496 47.2745 273.368C44.4663 271.532 41.2261 268.723 40.038 267.103C37.9859 264.403 37.9859 263.647 39.1739 254.466C40.47 245.61 40.362 244.422 38.4179 240.101C37.3378 237.509 34.5296 233.297 32.2615 230.597C29.9933 227.897 27.4011 224.116 26.5371 222.28C24.9169 218.932 25.0249 218.392 28.8052 208.995C30.9654 203.703 32.8015 197.87 32.8015 196.034C32.8015 194.198 31.2894 188.906 29.3453 184.37C24.5929 172.921 24.8089 170.545 31.0734 162.876C33.9896 159.42 37.3378 154.559 38.4179 151.967C40.362 147.647 40.47 146.567 39.1739 137.602C37.9859 128.422 37.9859 127.666 40.038 124.965C41.2261 123.345 45.3304 119.781 49.1106 117.081C57.9673 110.816 60.3434 107.144 61.9635 97.4235C64.1237 84.7866 65.7438 83.0584 78.8127 79.4942C86.3733 77.442 90.1535 74.0938 95.0139 65.0212C101.386 53.0323 101.278 53.0323 113.699 52.2763C119.64 51.8443 125.58 50.8722 127.416 49.9001C129.144 49.0361 133.789 45.0398 137.677 41.1515C144.265 34.563 145.129 34.023 149.558 34.023C152.15 34.023 156.686 34.7791 159.602 35.6431C168.567 38.3433 172.779 37.8033 182.392 32.4029C193.409 26.2465 196.217 26.2465 206.046 32.0789Z" fill="#03989E"/>
<path d="M86.3925 279.155V281.315L86.2275 282.485C86.1875 282.705 86.1225 282.875 86.0325 282.995C85.9425 283.11 85.7925 283.167 85.5825 283.167C85.3975 283.167 85.255 283.11 85.155 282.995C85.055 282.875 84.985 282.705 84.945 282.485L84.78 281.315V279.155H86.3925ZM89.1525 279.155V281.315L88.9875 282.485C88.9475 282.705 88.8825 282.875 88.7925 282.995C88.7025 283.11 88.5525 283.167 88.3425 283.167C88.1575 283.167 88.015 283.11 87.915 282.995C87.815 282.875 87.745 282.705 87.705 282.485L87.54 281.315V279.155H89.1525ZM98.7151 280.812H95.4451V290H93.4276V280.812H90.1576V279.155H98.7151V280.812ZM110.111 284.577C110.111 285.372 109.978 286.11 109.713 286.79C109.453 287.465 109.083 288.05 108.603 288.545C108.123 289.04 107.546 289.427 106.871 289.707C106.196 289.983 105.446 290.12 104.621 290.12C103.801 290.12 103.053 289.983 102.378 289.707C101.703 289.427 101.123 289.04 100.638 288.545C100.158 288.05 99.7855 287.465 99.5205 286.79C99.2555 286.11 99.123 285.372 99.123 284.577C99.123 283.782 99.2555 283.047 99.5205 282.372C99.7855 281.692 100.158 281.105 100.638 280.61C101.123 280.115 101.703 279.73 102.378 279.455C103.053 279.175 103.801 279.035 104.621 279.035C105.171 279.035 105.688 279.1 106.173 279.23C106.658 279.355 107.103 279.535 107.508 279.77C107.913 280 108.276 280.282 108.596 280.617C108.921 280.947 109.196 281.317 109.421 281.727C109.646 282.137 109.816 282.582 109.931 283.062C110.051 283.542 110.111 284.047 110.111 284.577ZM108.048 284.577C108.048 283.982 107.968 283.45 107.808 282.98C107.648 282.505 107.421 282.102 107.126 281.772C106.831 281.442 106.471 281.19 106.046 281.015C105.626 280.84 105.151 280.752 104.621 280.752C104.091 280.752 103.613 280.84 103.188 281.015C102.768 281.19 102.408 281.442 102.108 281.772C101.813 282.102 101.586 282.505 101.426 282.98C101.266 283.45 101.186 283.982 101.186 284.577C101.186 285.172 101.266 285.707 101.426 286.182C101.586 286.652 101.813 287.052 102.108 287.382C102.408 287.707 102.768 287.957 103.188 288.132C103.613 288.307 104.091 288.395 104.621 288.395C105.151 288.395 105.626 288.307 106.046 288.132C106.471 287.957 106.831 287.707 107.126 287.382C107.421 287.052 107.648 286.652 107.808 286.182C107.968 285.707 108.048 285.172 108.048 284.577ZM121.512 284.577C121.512 285.372 121.38 286.102 121.115 286.767C120.85 287.432 120.477 288.005 119.997 288.485C119.517 288.965 118.94 289.337 118.265 289.602C117.59 289.867 116.84 290 116.015 290H111.882V279.155H116.015C116.84 279.155 117.59 279.29 118.265 279.56C118.94 279.825 119.517 280.197 119.997 280.677C120.477 281.152 120.85 281.722 121.115 282.387C121.38 283.052 121.512 283.782 121.512 284.577ZM119.442 284.577C119.442 283.982 119.362 283.45 119.202 282.98C119.047 282.505 118.82 282.105 118.52 281.78C118.225 281.45 117.865 281.197 117.44 281.022C117.02 280.847 116.545 280.76 116.015 280.76H113.907V288.395H116.015C116.545 288.395 117.02 288.307 117.44 288.132C117.865 287.957 118.225 287.707 118.52 287.382C118.82 287.052 119.047 286.652 119.202 286.182C119.362 285.707 119.442 285.172 119.442 284.577ZM133.636 284.577C133.636 285.372 133.503 286.11 133.238 286.79C132.978 287.465 132.608 288.05 132.128 288.545C131.648 289.04 131.071 289.427 130.396 289.707C129.721 289.983 128.971 290.12 128.146 290.12C127.326 290.12 126.578 289.983 125.903 289.707C125.228 289.427 124.648 289.04 124.163 288.545C123.683 288.05 123.311 287.465 123.046 286.79C122.781 286.11 122.648 285.372 122.648 284.577C122.648 283.782 122.781 283.047 123.046 282.372C123.311 281.692 123.683 281.105 124.163 280.61C124.648 280.115 125.228 279.73 125.903 279.455C126.578 279.175 127.326 279.035 128.146 279.035C128.696 279.035 129.213 279.1 129.698 279.23C130.183 279.355 130.628 279.535 131.033 279.77C131.438 280 131.801 280.282 132.121 280.617C132.446 280.947 132.721 281.317 132.946 281.727C133.171 282.137 133.341 282.582 133.456 283.062C133.576 283.542 133.636 284.047 133.636 284.577ZM131.573 284.577C131.573 283.982 131.493 283.45 131.333 282.98C131.173 282.505 130.946 282.102 130.651 281.772C130.356 281.442 129.996 281.19 129.571 281.015C129.151 280.84 128.676 280.752 128.146 280.752C127.616 280.752 127.138 280.84 126.713 281.015C126.293 281.19 125.933 281.442 125.633 281.772C125.338 282.102 125.111 282.505 124.951 282.98C124.791 283.45 124.711 283.982 124.711 284.577C124.711 285.172 124.791 285.707 124.951 286.182C125.111 286.652 125.338 287.052 125.633 287.382C125.933 287.707 126.293 287.957 126.713 288.132C127.138 288.307 127.616 288.395 128.146 288.395C128.676 288.395 129.151 288.307 129.571 288.132C129.996 287.957 130.356 287.707 130.651 287.382C130.946 287.052 131.173 286.652 131.333 286.182C131.493 285.707 131.573 285.172 131.573 284.577ZM141.183 281.127C141.123 281.232 141.058 281.31 140.988 281.36C140.923 281.405 140.84 281.427 140.74 281.427C140.635 281.427 140.52 281.39 140.395 281.315C140.275 281.235 140.13 281.147 139.96 281.052C139.79 280.957 139.59 280.872 139.36 280.797C139.135 280.717 138.868 280.677 138.558 280.677C138.278 280.677 138.033 280.712 137.823 280.782C137.613 280.847 137.435 280.94 137.29 281.06C137.15 281.18 137.045 281.325 136.975 281.495C136.905 281.66 136.87 281.842 136.87 282.042C136.87 282.297 136.94 282.51 137.08 282.68C137.225 282.85 137.415 282.995 137.65 283.115C137.885 283.235 138.153 283.342 138.453 283.437C138.753 283.532 139.06 283.635 139.375 283.745C139.69 283.85 139.998 283.975 140.298 284.12C140.598 284.26 140.865 284.44 141.1 284.66C141.335 284.875 141.523 285.14 141.663 285.455C141.808 285.77 141.88 286.152 141.88 286.602C141.88 287.092 141.795 287.552 141.625 287.982C141.46 288.407 141.215 288.78 140.89 289.1C140.57 289.415 140.178 289.665 139.713 289.85C139.248 290.03 138.715 290.12 138.115 290.12C137.77 290.12 137.43 290.085 137.095 290.015C136.76 289.95 136.438 289.855 136.128 289.73C135.823 289.605 135.535 289.455 135.265 289.28C134.995 289.105 134.755 288.91 134.545 288.695L135.138 287.727C135.188 287.657 135.253 287.6 135.333 287.555C135.413 287.505 135.498 287.48 135.588 287.48C135.713 287.48 135.848 287.532 135.993 287.637C136.138 287.737 136.31 287.85 136.51 287.975C136.71 288.1 136.943 288.215 137.208 288.32C137.478 288.42 137.8 288.47 138.175 288.47C138.75 288.47 139.195 288.335 139.51 288.065C139.825 287.79 139.983 287.397 139.983 286.887C139.983 286.602 139.91 286.37 139.765 286.19C139.625 286.01 139.438 285.86 139.203 285.74C138.968 285.615 138.7 285.51 138.4 285.425C138.1 285.34 137.795 285.247 137.485 285.147C137.175 285.047 136.87 284.927 136.57 284.787C136.27 284.647 136.003 284.465 135.768 284.24C135.533 284.015 135.343 283.735 135.198 283.4C135.058 283.06 134.988 282.642 134.988 282.147C134.988 281.752 135.065 281.367 135.22 280.992C135.38 280.617 135.61 280.285 135.91 279.995C136.21 279.705 136.58 279.472 137.02 279.297C137.46 279.122 137.965 279.035 138.535 279.035C139.175 279.035 139.765 279.135 140.305 279.335C140.845 279.535 141.305 279.815 141.685 280.175L141.183 281.127ZM154.408 280.812H151.138V290H149.121V280.812H145.851V279.155H154.408V280.812ZM157.853 280.76V283.767H161.648V285.32H157.853V288.387H162.668V290H155.828V279.155H162.668V280.76H157.853ZM173.598 279.155V290H172.563C172.403 290 172.268 289.975 172.158 289.925C172.053 289.87 171.951 289.78 171.851 289.655L166.188 282.425C166.218 282.755 166.233 283.06 166.233 283.34V290H164.456V279.155H165.513C165.598 279.155 165.671 279.16 165.731 279.17C165.796 279.175 165.851 279.19 165.896 279.215C165.946 279.235 165.993 279.267 166.038 279.312C166.083 279.352 166.133 279.407 166.188 279.477L171.873 286.737C171.858 286.562 171.846 286.39 171.836 286.22C171.826 286.05 171.821 285.892 171.821 285.747V279.155H173.598ZM178.038 280.76V283.767H181.833V285.32H178.038V288.387H182.853V290H176.013V279.155H182.853V280.76H178.038ZM196.401 279.155V290H194.624V282.995C194.624 282.715 194.639 282.412 194.669 282.087L191.391 288.245C191.236 288.54 190.999 288.687 190.679 288.687H190.394C190.074 288.687 189.836 288.54 189.681 288.245L186.366 282.065C186.381 282.23 186.394 282.392 186.404 282.552C186.414 282.712 186.419 282.86 186.419 282.995V290H184.641V279.155H186.164C186.254 279.155 186.331 279.157 186.396 279.162C186.461 279.167 186.519 279.18 186.569 279.2C186.624 279.22 186.671 279.252 186.711 279.297C186.756 279.342 186.799 279.402 186.839 279.477L190.086 285.5C190.171 285.66 190.249 285.825 190.319 285.995C190.394 286.165 190.466 286.34 190.536 286.52C190.606 286.335 190.679 286.157 190.754 285.987C190.829 285.812 190.909 285.645 190.994 285.485L194.196 279.477C194.236 279.402 194.279 279.342 194.324 279.297C194.369 279.252 194.416 279.22 194.466 279.2C194.521 279.18 194.581 279.167 194.646 279.162C194.711 279.157 194.789 279.155 194.879 279.155H196.401ZM209.163 284.577C209.163 285.372 209.031 286.11 208.766 286.79C208.506 287.465 208.136 288.05 207.656 288.545C207.176 289.04 206.598 289.427 205.923 289.707C205.248 289.983 204.498 290.12 203.673 290.12C202.853 290.12 202.106 289.983 201.431 289.707C200.756 289.427 200.176 289.04 199.691 288.545C199.211 288.05 198.838 287.465 198.573 286.79C198.308 286.11 198.176 285.372 198.176 284.577C198.176 283.782 198.308 283.047 198.573 282.372C198.838 281.692 199.211 281.105 199.691 280.61C200.176 280.115 200.756 279.73 201.431 279.455C202.106 279.175 202.853 279.035 203.673 279.035C204.223 279.035 204.741 279.1 205.226 279.23C205.711 279.355 206.156 279.535 206.561 279.77C206.966 280 207.328 280.282 207.648 280.617C207.973 280.947 208.248 281.317 208.473 281.727C208.698 282.137 208.868 282.582 208.983 283.062C209.103 283.542 209.163 284.047 209.163 284.577ZM207.101 284.577C207.101 283.982 207.021 283.45 206.861 282.98C206.701 282.505 206.473 282.102 206.178 281.772C205.883 281.442 205.523 281.19 205.098 281.015C204.678 280.84 204.203 280.752 203.673 280.752C203.143 280.752 202.666 280.84 202.241 281.015C201.821 281.19 201.461 281.442 201.161 281.772C200.866 282.102 200.638 282.505 200.478 282.98C200.318 283.45 200.238 283.982 200.238 284.577C200.238 285.172 200.318 285.707 200.478 286.182C200.638 286.652 200.866 287.052 201.161 287.382C201.461 287.707 201.821 287.957 202.241 288.132C202.666 288.307 203.143 288.395 203.673 288.395C204.203 288.395 204.678 288.307 205.098 288.132C205.523 287.957 205.883 287.707 206.178 287.382C206.473 287.052 206.701 286.652 206.861 286.182C207.021 285.707 207.101 285.172 207.101 284.577ZM216.71 281.127C216.65 281.232 216.585 281.31 216.515 281.36C216.45 281.405 216.368 281.427 216.268 281.427C216.163 281.427 216.048 281.39 215.923 281.315C215.803 281.235 215.658 281.147 215.488 281.052C215.318 280.957 215.118 280.872 214.888 280.797C214.663 280.717 214.395 280.677 214.085 280.677C213.805 280.677 213.56 280.712 213.35 280.782C213.14 280.847 212.963 280.94 212.818 281.06C212.678 281.18 212.573 281.325 212.503 281.495C212.433 281.66 212.398 281.842 212.398 282.042C212.398 282.297 212.468 282.51 212.608 282.68C212.753 282.85 212.943 282.995 213.178 283.115C213.413 283.235 213.68 283.342 213.98 283.437C214.28 283.532 214.588 283.635 214.903 283.745C215.218 283.85 215.525 283.975 215.825 284.12C216.125 284.26 216.393 284.44 216.628 284.66C216.863 284.875 217.05 285.14 217.19 285.455C217.335 285.77 217.408 286.152 217.408 286.602C217.408 287.092 217.323 287.552 217.153 287.982C216.988 288.407 216.743 288.78 216.418 289.1C216.098 289.415 215.705 289.665 215.24 289.85C214.775 290.03 214.243 290.12 213.643 290.12C213.298 290.12 212.958 290.085 212.623 290.015C212.288 289.95 211.965 289.855 211.655 289.73C211.35 289.605 211.063 289.455 210.793 289.28C210.523 289.105 210.283 288.91 210.073 288.695L210.665 287.727C210.715 287.657 210.78 287.6 210.86 287.555C210.94 287.505 211.025 287.48 211.115 287.48C211.24 287.48 211.375 287.532 211.52 287.637C211.665 287.737 211.838 287.85 212.038 287.975C212.238 288.1 212.47 288.215 212.735 288.32C213.005 288.42 213.328 288.47 213.703 288.47C214.278 288.47 214.723 288.335 215.038 288.065C215.353 287.79 215.51 287.397 215.51 286.887C215.51 286.602 215.438 286.37 215.293 286.19C215.153 286.01 214.965 285.86 214.73 285.74C214.495 285.615 214.228 285.51 213.928 285.425C213.628 285.34 213.323 285.247 213.013 285.147C212.703 285.047 212.398 284.927 212.098 284.787C211.798 284.647 211.53 284.465 211.295 284.24C211.06 284.015 210.87 283.735 210.725 283.4C210.585 283.06 210.515 282.642 210.515 282.147C210.515 281.752 210.593 281.367 210.748 280.992C210.908 280.617 211.138 280.285 211.438 279.995C211.738 279.705 212.108 279.472 212.548 279.297C212.988 279.122 213.493 279.035 214.063 279.035C214.703 279.035 215.293 279.135 215.833 279.335C216.373 279.535 216.833 279.815 217.213 280.175L216.71 281.127ZM227.18 288.372C227.57 288.372 227.917 288.307 228.222 288.177C228.532 288.047 228.792 287.865 229.002 287.63C229.212 287.395 229.372 287.11 229.482 286.775C229.597 286.44 229.655 286.065 229.655 285.65V279.155H231.672V285.65C231.672 286.295 231.567 286.892 231.357 287.442C231.152 287.987 230.855 288.46 230.465 288.86C230.08 289.255 229.61 289.565 229.055 289.79C228.5 290.01 227.875 290.12 227.18 290.12C226.48 290.12 225.852 290.01 225.297 289.79C224.742 289.565 224.27 289.255 223.88 288.86C223.495 288.46 223.197 287.987 222.987 287.442C222.782 286.892 222.68 286.295 222.68 285.65V279.155H224.697V285.642C224.697 286.057 224.752 286.432 224.862 286.767C224.977 287.102 225.14 287.39 225.35 287.63C225.565 287.865 225.825 288.047 226.13 288.177C226.44 288.307 226.79 288.372 227.18 288.372ZM243.09 279.155V290H242.055C241.895 290 241.76 289.975 241.65 289.925C241.545 289.87 241.443 289.78 241.343 289.655L235.68 282.425C235.71 282.755 235.725 283.06 235.725 283.34V290H233.948V279.155H235.005C235.09 279.155 235.163 279.16 235.223 279.17C235.288 279.175 235.343 279.19 235.388 279.215C235.438 279.235 235.485 279.267 235.53 279.312C235.575 279.352 235.625 279.407 235.68 279.477L241.365 286.737C241.35 286.562 241.338 286.39 241.328 286.22C241.318 286.05 241.313 285.892 241.313 285.747V279.155H243.09ZM252.678 284.607C253.048 284.607 253.37 284.562 253.645 284.472C253.92 284.377 254.148 284.245 254.328 284.075C254.513 283.9 254.65 283.69 254.74 283.445C254.83 283.195 254.875 282.917 254.875 282.612C254.875 282.322 254.83 282.06 254.74 281.825C254.65 281.59 254.515 281.39 254.335 281.225C254.155 281.06 253.928 280.935 253.653 280.85C253.378 280.76 253.053 280.715 252.678 280.715H251.17V284.607H252.678ZM252.678 279.155C253.403 279.155 254.03 279.24 254.56 279.41C255.09 279.58 255.528 279.817 255.873 280.122C256.218 280.427 256.473 280.792 256.638 281.217C256.808 281.642 256.893 282.107 256.893 282.612C256.893 283.137 256.805 283.62 256.63 284.06C256.455 284.495 256.193 284.87 255.843 285.185C255.493 285.5 255.053 285.745 254.523 285.92C253.998 286.095 253.383 286.182 252.678 286.182H251.17V290H249.153V279.155H252.678ZM263.408 285.905L262.088 282.297C262.023 282.137 261.956 281.947 261.886 281.727C261.816 281.507 261.746 281.27 261.676 281.015C261.611 281.27 261.543 281.51 261.473 281.735C261.403 281.955 261.336 282.147 261.271 282.312L259.958 285.905H263.408ZM266.971 290H265.411C265.236 290 265.093 289.957 264.983 289.872C264.873 289.782 264.791 289.672 264.736 289.542L263.926 287.33H259.433L258.623 289.542C258.583 289.657 258.506 289.762 258.391 289.857C258.276 289.952 258.133 290 257.963 290H256.388L260.656 279.155H262.711L266.971 290ZM271.371 284.315C271.751 284.315 272.081 284.267 272.361 284.172C272.646 284.077 272.878 283.947 273.058 283.782C273.243 283.612 273.381 283.412 273.471 283.182C273.561 282.952 273.606 282.7 273.606 282.425C273.606 281.875 273.423 281.452 273.058 281.157C272.698 280.862 272.146 280.715 271.401 280.715H270.111V284.315H271.371ZM276.561 290H274.738C274.393 290 274.143 289.865 273.988 289.595L271.708 286.122C271.623 285.992 271.528 285.9 271.423 285.845C271.323 285.79 271.173 285.763 270.973 285.763H270.111V290H268.093V279.155H271.401C272.136 279.155 272.766 279.232 273.291 279.387C273.821 279.537 274.253 279.75 274.588 280.025C274.928 280.3 275.178 280.63 275.338 281.015C275.498 281.395 275.578 281.815 275.578 282.275C275.578 282.64 275.523 282.985 275.413 283.31C275.308 283.635 275.153 283.93 274.948 284.195C274.748 284.46 274.498 284.692 274.198 284.892C273.903 285.092 273.566 285.25 273.186 285.365C273.316 285.44 273.436 285.53 273.546 285.635C273.656 285.735 273.756 285.855 273.846 285.995L276.561 290ZM278.917 279.155V281.315L278.752 282.485C278.712 282.705 278.647 282.875 278.557 282.995C278.467 283.11 278.317 283.167 278.107 283.167C277.922 283.167 277.779 283.11 277.679 282.995C277.579 282.875 277.509 282.705 277.469 282.485L277.304 281.315V279.155H278.917ZM281.677 279.155V281.315L281.512 282.485C281.472 282.705 281.407 282.875 281.317 282.995C281.227 283.11 281.077 283.167 280.867 283.167C280.682 283.167 280.539 283.11 280.439 282.995C280.339 282.875 280.269 282.705 280.229 282.485L280.064 281.315V279.155H281.677Z" fill="#252222"/>
<path d="M298.149 292.057L296.923 290.94C292.567 286.991 289.691 284.386 289.691 281.189C289.691 278.584 291.738 276.537 294.343 276.537C295.815 276.537 297.227 277.222 298.149 278.305C299.071 277.222 300.483 276.537 301.955 276.537C304.56 276.537 306.606 278.584 306.606 281.189C306.606 284.386 303.731 286.991 299.375 290.949L298.149 292.057Z" fill="#FF0000"/>
<path d="M120.165 205.628L110.287 237.44H104.941L97.9889 215.704C97.7983 215.176 97.6223 214.531 97.4609 213.768C97.3729 214.135 97.2849 214.479 97.1969 214.802C97.1089 215.125 97.0136 215.425 96.9109 215.704L89.8929 237.44H84.5249L74.6689 205.628H79.6189C80.1323 205.628 80.5576 205.753 80.8949 206.002C81.2469 206.237 81.4816 206.559 81.5989 206.97L87.0109 226C87.1283 226.469 87.2383 226.983 87.3409 227.54C87.4583 228.083 87.5756 228.655 87.6929 229.256C87.8103 228.64 87.9349 228.061 88.0669 227.518C88.2136 226.975 88.3676 226.469 88.5289 226L94.7769 206.97C94.8943 206.633 95.1216 206.325 95.4589 206.046C95.8109 205.767 96.2363 205.628 96.7349 205.628H98.4729C98.9863 205.628 99.4043 205.753 99.7269 206.002C100.05 206.251 100.292 206.574 100.453 206.97L106.679 226C106.987 226.909 107.266 227.958 107.515 229.146C107.706 227.987 107.918 226.939 108.153 226L113.565 206.97C113.653 206.603 113.873 206.288 114.225 206.024C114.592 205.76 115.024 205.628 115.523 205.628H120.165ZM153.765 221.534C153.765 223.866 153.376 226.029 152.599 228.024C151.836 230.004 150.751 231.72 149.343 233.172C147.935 234.624 146.241 235.761 144.261 236.582C142.281 237.389 140.081 237.792 137.661 237.792C135.255 237.792 133.063 237.389 131.083 236.582C129.103 235.761 127.401 234.624 125.979 233.172C124.571 231.72 123.478 230.004 122.701 228.024C121.923 226.029 121.535 223.866 121.535 221.534C121.535 219.202 121.923 217.046 122.701 215.066C123.478 213.071 124.571 211.348 125.979 209.896C127.401 208.444 129.103 207.315 131.083 206.508C133.063 205.687 135.255 205.276 137.661 205.276C139.274 205.276 140.792 205.467 142.215 205.848C143.637 206.215 144.943 206.743 146.131 207.432C147.319 208.107 148.382 208.935 149.321 209.918C150.274 210.886 151.081 211.971 151.741 213.174C152.401 214.377 152.899 215.682 153.237 217.09C153.589 218.498 153.765 219.979 153.765 221.534ZM147.715 221.534C147.715 219.789 147.48 218.227 147.011 216.848C146.541 215.455 145.874 214.274 145.009 213.306C144.143 212.338 143.087 211.597 141.841 211.084C140.609 210.571 139.215 210.314 137.661 210.314C136.106 210.314 134.705 210.571 133.459 211.084C132.227 211.597 131.171 212.338 130.291 213.306C129.425 214.274 128.758 215.455 128.289 216.848C127.819 218.227 127.585 219.789 127.585 221.534C127.585 223.279 127.819 224.849 128.289 226.242C128.758 227.621 129.425 228.794 130.291 229.762C131.171 230.715 132.227 231.449 133.459 231.962C134.705 232.475 136.106 232.732 137.661 232.732C139.215 232.732 140.609 232.475 141.841 231.962C143.087 231.449 144.143 230.715 145.009 229.762C145.874 228.794 146.541 227.621 147.011 226.242C147.48 224.849 147.715 223.279 147.715 221.534ZM185.78 205.628V237.44H182.744C182.275 237.44 181.879 237.367 181.556 237.22C181.248 237.059 180.947 236.795 180.654 236.428L164.044 215.22C164.132 216.188 164.176 217.083 164.176 217.904V237.44H158.962V205.628H162.064C162.313 205.628 162.526 205.643 162.702 205.672C162.893 205.687 163.054 205.731 163.186 205.804C163.333 205.863 163.472 205.958 163.604 206.09C163.736 206.207 163.883 206.369 164.044 206.574L180.72 227.87C180.676 227.357 180.639 226.851 180.61 226.352C180.581 225.853 180.566 225.391 180.566 224.966V205.628H185.78ZM221.112 221.534C221.112 223.866 220.724 226.007 219.946 227.958C219.169 229.909 218.076 231.588 216.668 232.996C215.26 234.404 213.566 235.497 211.586 236.274C209.606 237.051 207.406 237.44 204.986 237.44H192.864V205.628H204.986C207.406 205.628 209.606 206.024 211.586 206.816C213.566 207.593 215.26 208.686 216.668 210.094C218.076 211.487 219.169 213.159 219.946 215.11C220.724 217.061 221.112 219.202 221.112 221.534ZM215.04 221.534C215.04 219.789 214.806 218.227 214.336 216.848C213.882 215.455 213.214 214.281 212.334 213.328C211.469 212.36 210.413 211.619 209.166 211.106C207.934 210.593 206.541 210.336 204.986 210.336H198.804V232.732H204.986C206.541 232.732 207.934 232.475 209.166 231.962C210.413 231.449 211.469 230.715 212.334 229.762C213.214 228.794 213.882 227.621 214.336 226.242C214.806 224.849 215.04 223.279 215.04 221.534ZM256.675 221.534C256.675 223.866 256.286 226.029 255.509 228.024C254.746 230.004 253.661 231.72 252.253 233.172C250.845 234.624 249.151 235.761 247.171 236.582C245.191 237.389 242.991 237.792 240.571 237.792C238.166 237.792 235.973 237.389 233.993 236.582C232.013 235.761 230.312 234.624 228.889 233.172C227.481 231.72 226.388 230.004 225.611 228.024C224.834 226.029 224.445 223.866 224.445 221.534C224.445 219.202 224.834 217.046 225.611 215.066C226.388 213.071 227.481 211.348 228.889 209.896C230.312 208.444 232.013 207.315 233.993 206.508C235.973 205.687 238.166 205.276 240.571 205.276C242.184 205.276 243.702 205.467 245.125 205.848C246.548 206.215 247.853 206.743 249.041 207.432C250.229 208.107 251.292 208.935 252.231 209.918C253.184 210.886 253.991 211.971 254.651 213.174C255.311 214.377 255.81 215.682 256.147 217.09C256.499 218.498 256.675 219.979 256.675 221.534ZM250.625 221.534C250.625 219.789 250.39 218.227 249.921 216.848C249.452 215.455 248.784 214.274 247.919 213.306C247.054 212.338 245.998 211.597 244.751 211.084C243.519 210.571 242.126 210.314 240.571 210.314C239.016 210.314 237.616 210.571 236.369 211.084C235.137 211.597 234.081 212.338 233.201 213.306C232.336 214.274 231.668 215.455 231.199 216.848C230.73 218.227 230.495 219.789 230.495 221.534C230.495 223.279 230.73 224.849 231.199 226.242C231.668 227.621 232.336 228.794 233.201 229.762C234.081 230.715 235.137 231.449 236.369 231.962C237.616 232.475 239.016 232.732 240.571 232.732C242.126 232.732 243.519 232.475 244.751 231.962C245.998 231.449 247.054 230.715 247.919 229.762C248.784 228.794 249.452 227.621 249.921 226.242C250.39 224.849 250.625 223.279 250.625 221.534ZM273.774 232.82C274.874 232.82 275.798 232.688 276.546 232.424C277.294 232.16 277.888 231.808 278.328 231.368C278.783 230.928 279.105 230.415 279.296 229.828C279.501 229.241 279.604 228.618 279.604 227.958C279.604 227.269 279.494 226.653 279.274 226.11C279.054 225.553 278.709 225.083 278.24 224.702C277.771 224.306 277.162 224.005 276.414 223.8C275.681 223.595 274.793 223.492 273.752 223.492H267.79V232.82H273.774ZM267.79 210.204V219.4H272.498C274.522 219.4 276.047 219.033 277.074 218.3C278.115 217.567 278.636 216.401 278.636 214.802C278.636 213.145 278.167 211.964 277.228 211.26C276.289 210.556 274.823 210.204 272.828 210.204H267.79ZM272.828 205.628C274.911 205.628 276.693 205.826 278.174 206.222C279.655 206.618 280.865 207.183 281.804 207.916C282.757 208.649 283.454 209.537 283.894 210.578C284.334 211.619 284.554 212.793 284.554 214.098C284.554 214.846 284.444 215.565 284.224 216.254C284.004 216.929 283.659 217.567 283.19 218.168C282.735 218.755 282.149 219.29 281.43 219.774C280.726 220.258 279.883 220.669 278.9 221.006C283.271 221.989 285.456 224.35 285.456 228.09C285.456 229.439 285.199 230.686 284.686 231.83C284.173 232.974 283.425 233.964 282.442 234.8C281.459 235.621 280.249 236.267 278.812 236.736C277.375 237.205 275.732 237.44 273.884 237.44H261.872V205.628H272.828ZM303.378 225.12V237.44H297.482V225.12L285.888 205.628H291.102C291.615 205.628 292.019 205.753 292.312 206.002C292.62 206.251 292.877 206.567 293.082 206.948L298.89 217.574C299.227 218.205 299.521 218.799 299.77 219.356C300.034 219.913 300.269 220.471 300.474 221.028C300.665 220.471 300.885 219.913 301.134 219.356C301.383 218.799 301.669 218.205 301.992 217.574L307.778 206.948C307.939 206.625 308.181 206.325 308.504 206.046C308.827 205.767 309.237 205.628 309.736 205.628H314.972L303.378 225.12Z" fill="#252222"/>
<path d="M125.916 49.3003C124.981 50.1745 125.036 51.1547 126.026 52.0555C126.96 52.9032 136.278 57.4598 140.895 59.3672C145.128 61.0892 150.625 62.9966 154.996 64.2682C156.947 64.8511 158.596 65.3544 158.651 65.3809C158.761 65.5134 160.685 78.1765 160.685 78.8388C160.685 79.3421 160.493 79.3686 156.865 79.3686C154.748 79.3686 152.687 79.5011 152.247 79.66C151.093 80.0574 149.718 81.4615 149.416 82.5477C149.251 83.0775 149.141 88.5349 149.141 95.8201C149.141 107.927 149.141 108.192 149.718 108.881C150.46 109.781 151.835 109.834 152.659 108.96C153.236 108.377 153.264 108.112 153.264 103.529V98.7078H166.457H179.65L179.595 113.729L179.513 128.776L177.671 128.962C175.362 129.173 174.263 129.518 171.817 130.737C168.106 132.564 164.945 136.459 163.873 140.459C162.691 144.91 163.818 150.394 166.622 153.732C167.144 154.341 167.556 154.924 167.556 155.056C167.556 155.242 155.023 167.348 151.752 170.289L150.378 171.534L150.323 169.309C150.186 162.315 145.788 155.692 139.109 152.407C138.202 151.957 136.828 151.4 136.031 151.162L134.601 150.738L143.177 142.181C148.701 136.697 152.027 133.174 152.522 132.3L153.264 130.975V122.895V114.841L152.549 114.153C152 113.623 151.697 113.517 150.983 113.649C149.169 113.994 149.141 114.073 149.141 122.736V130.525L141.363 138.26C128.197 151.4 128.417 151.162 127.18 153.599C123.772 160.249 125.036 167.905 130.396 172.991C132.54 175.005 134.464 176.17 137.185 177.018C143.287 178.899 149.443 177.68 154.363 173.6C155.49 172.673 161.922 166.554 168.683 160.01C179.677 149.307 181.024 147.93 181.959 146.208C183.828 142.711 183.773 143.85 183.773 111.954C183.773 84.5611 183.745 83.157 183.251 82.1503C182.673 80.9317 181.766 80.0574 180.667 79.66C180.227 79.5011 178.111 79.3686 175.967 79.3686H172.037L172.861 73.9908C173.301 71.0502 173.713 68.6129 173.741 68.5599C173.796 68.507 175.115 68.6394 176.682 68.8778C178.221 69.0898 180.53 69.3547 181.794 69.4607L184.048 69.6461V67.6062V65.5928H183.251C182.426 65.5928 176.737 64.9305 175.06 64.6391C174.29 64.5067 174.153 64.3742 174.153 63.6854C174.153 62.8112 173.356 61.1422 172.614 60.5329C171.157 59.3143 170.305 59.1023 166.457 59.1023C162.472 59.1023 161.702 59.3143 160.08 60.7448C159.256 61.5131 159.943 61.619 153.539 59.6322C145.98 57.2744 138.724 54.3073 131.495 50.5719C129.434 49.5122 127.455 48.638 127.153 48.638C126.823 48.638 126.273 48.9294 125.916 49.3003ZM169.315 63.2086C169.865 63.394 170.03 63.6589 170.03 64.2418C170.03 64.9835 167.969 78.8918 167.694 80.0839C167.501 80.9052 166.622 81.329 165.907 80.9582C165.22 80.6138 165.275 80.8787 163.983 72.3483C162.691 63.8709 162.664 63.553 163.516 63.2086C164.341 62.8907 168.463 62.8907 169.315 63.2086ZM163.186 84.0047C163.956 84.614 165.55 85.1969 166.457 85.1969C167.364 85.1969 168.958 84.6141 169.728 83.9782C170.525 83.3424 170.607 83.3424 175.032 83.3954L179.513 83.4749L179.595 89.0912L179.65 94.734H166.457H153.264V89.2236C153.264 86.1771 153.346 83.6074 153.456 83.5279C153.539 83.4219 155.6 83.3424 158.019 83.3424C162.252 83.3424 162.417 83.3689 163.186 84.0047ZM179.595 137.307C179.403 143.585 179.293 143.85 174.483 148.566C170.168 152.804 170.47 152.751 168.738 149.36C167.831 147.612 167.694 147.109 167.611 144.963C167.446 141.413 168.546 138.552 170.992 136.194C173.081 134.207 175.967 132.909 178.386 132.882H179.705L179.595 137.307ZM135.618 155.295C137.927 156.116 140.016 157.493 141.802 159.348C143.671 161.308 144.524 162.739 145.431 165.335C146.09 167.189 146.145 167.746 146.063 170.395C146.008 172.037 145.87 173.468 145.76 173.6C145.623 173.706 144.496 173.865 143.232 173.892C133.364 174.316 126.438 164.302 130.616 155.745L131.33 154.288L132.622 154.473C133.309 154.579 134.656 154.95 135.618 155.295Z" fill="#03989E"/>
<path d="M260.378 48.1572C257.489 49.7993 249.83 53.4605 245.933 55.0758C241.382 56.9333 237.812 58.1716 232.824 59.6792L229.635 60.6214L228.545 59.5715C227.101 58.2255 225.302 57.8486 221.487 58.037C219.115 58.1447 218.516 58.2793 217.48 58.8716C216.063 59.6792 215.191 60.9445 214.918 62.5866C214.673 63.9057 215.218 63.7711 208.05 64.5787C203.69 65.0902 189.736 65.2518 184.013 64.8749L180.797 64.6595V66.6516V68.6437L182.241 68.8322C183.004 68.9129 186.983 69.0745 191.017 69.1552C198.839 69.3437 204.944 69.0745 211.675 68.213C213.719 67.9707 215.409 67.8361 215.409 67.9707C215.409 68.1861 216.69 76.8007 216.908 77.9313L217.017 78.6851H213.065C210.367 78.6851 208.841 78.7928 208.241 79.062C207.097 79.5196 205.979 80.8388 205.598 82.1309C205.434 82.777 205.325 91.3916 205.325 106.898V130.696L199.111 137.049C183.713 152.824 183.822 152.663 182.514 156.593C181.914 158.397 181.805 159.258 181.778 161.735C181.778 166.769 183.25 170.242 186.902 173.849C190.145 177.026 193.442 178.453 198.103 178.749C201.264 178.937 203.908 178.372 206.96 176.918C209.25 175.815 209.413 175.653 223.204 162.031C235.822 149.594 237.239 148.113 238.002 146.525C239.747 142.891 239.665 144.479 239.665 112.04C239.665 91.8224 239.583 82.2386 239.365 81.7271C239.011 80.8118 237.866 79.5735 236.885 79.062C236.34 78.7928 235.059 78.6851 232.17 78.6851C228.627 78.6851 228.218 78.6313 228.218 78.2275C228.218 77.2314 230.181 64.821 230.344 64.6595C230.453 64.5787 232.116 64.0673 234.051 63.5019C241.518 61.3752 250.185 57.9294 258.007 53.972L262.558 51.6569V49.5571C262.558 47.1073 262.394 46.9996 260.378 48.1572ZM225.329 62.2636C226.283 62.6135 226.256 62.9635 224.921 72.0627C223.967 78.4967 223.721 79.7081 223.258 80.085C222.604 80.6503 222.468 80.6772 221.841 80.2196C221.459 79.9235 221.132 78.3082 220.124 71.7127C219.47 67.2169 218.979 63.2596 219.061 62.9097C219.143 62.5866 219.443 62.2367 219.715 62.1828C220.614 61.9405 224.648 61.9944 225.329 62.2636ZM219.306 83.3693C221.296 84.8499 223.939 84.8499 225.738 83.3693C226.529 82.7232 226.583 82.7232 230.998 82.777L235.44 82.8578L235.522 88.565L235.577 94.299H222.495H209.413V88.9418C209.413 85.9806 209.495 83.3962 209.577 83.1539C209.713 82.777 210.367 82.7232 214.101 82.7232C218.298 82.7232 218.461 82.7501 219.306 83.3693ZM235.577 113.655V128.946L233.614 129.107C231.189 129.269 229.009 130.05 226.774 131.53C225.275 132.526 225.084 132.769 225.002 133.657C224.812 135.757 226.774 136.376 228.954 134.895C230.426 133.926 232.988 133.065 234.541 133.065H235.631L235.522 137.695C235.44 142.272 235.413 142.379 234.568 144.156C233.887 145.61 233.015 146.66 230.29 149.405L226.856 152.851L226.283 152.178C223.939 149.432 223.013 145.26 223.994 141.679C224.593 139.526 224.512 138.853 223.667 138.18C222.822 137.533 221.868 137.614 221.023 138.422C220.287 139.176 219.497 142.325 219.497 144.641C219.497 148.275 220.669 151.667 222.795 154.332L223.858 155.651L215.327 163.996L206.824 172.315L206.633 169.946C206.388 167.065 205.816 164.777 204.753 162.462C202.518 157.589 198.076 153.605 192.979 151.855C191.971 151.532 191.18 151.155 191.208 151.075C191.262 150.967 195.105 147.01 199.738 142.245C204.398 137.48 208.459 133.092 208.814 132.472L209.413 131.369V114.839V98.3371H222.495H235.577V113.655ZM191.589 155.651C197.149 157.482 201.482 162.758 202.354 168.681C202.627 170.646 202.463 173.607 202.027 174.28C201.864 174.549 201.101 174.684 199.493 174.738C195.65 174.899 192.434 173.688 189.736 170.996C185.893 167.227 184.776 161.251 186.983 156.405L187.719 154.816L188.946 155.005C189.627 155.113 190.826 155.382 191.589 155.651Z" fill="#FF5757"/>
<circle cx="182.56" cy="66.548" r="3.582" fill="#03989E"/>
<ellipse cx="128.83" cy="51.026" rx="3.582" ry="3.582" fill="#03989E"/>
<ellipse cx="201.664" cy="66.548" rx="3.582" ry="3.582" fill="#FF5757"/>
<ellipse rx="3.42854" ry="3.42854" transform="matrix(0.64331 -0.765606 0.765605 0.643311 260.225 50.1215)" fill="#FF5757"/>
</svg>
