<svg width="92" height="92" viewBox="0 0 92 92" fill="none" xmlns="http://www.w3.org/2000/svg">
<g filter="url(#filter0_d)">
<circle cx="46" cy="46" r="36" fill="#3D83FD"/>
</g>
<path d="M59.3567 31.6653C58.4989 30.8075 57.1132 30.8075 56.2554 31.6653L45.5 42.3987L34.7446 31.6433C33.8868 30.7856 32.5011 30.7856 31.6433 31.6433C30.7856 32.5011 30.7856 33.8868 31.6433 34.7446L42.3987 45.5L31.6433 56.2554C30.7856 57.1132 30.7856 58.4989 31.6433 59.3567C32.5011 60.2144 33.8868 60.2144 34.7446 59.3567L45.5 48.6012L56.2554 59.3567C57.1132 60.2144 58.4989 60.2144 59.3567 59.3567C60.2144 58.4989 60.2144 57.1132 59.3567 56.2554L48.6012 45.5L59.3567 34.7446C60.1925 33.9088 60.1925 32.5011 59.3567 31.6653Z" fill="white"/>
<defs>
<filter id="filter0_d" x="0" y="0" width="92" height="92" filterUnits="userSpaceOnUse" color-interpolation-filters="sRGB">
<feFlood flood-opacity="0" result="BackgroundImageFix"/>
<feColorMatrix in="SourceAlpha" type="matrix" values="0 0 0 0 0 0 0 0 0 0 0 0 0 0 0 0 0 0 127 0"/>
<feOffset/>
<feGaussianBlur stdDeviation="5"/>
<feColorMatrix type="matrix" values="0 0 0 0 0.0470588 0 0 0 0 0.0862745 0 0 0 0 0.321569 0 0 0 0.25 0"/>
<feBlend mode="normal" in2="BackgroundImageFix" result="effect1_dropShadow"/>
<feBlend mode="normal" in="SourceGraphic" in2="effect1_dropShadow" result="shape"/>
</filter>
</defs>
</svg>
