<svg width="92" height="92" viewBox="0 0 92 92" fill="none" xmlns="http://www.w3.org/2000/svg">
<g filter="url(#filter0_d)">
<circle cx="46" cy="46" r="36" transform="rotate(180 46 46)" fill="#3D83FD"/>
</g>
<path d="M35.0744 44.2955L44.4015 34.5028C44.9983 33.8763 45.0021 32.8929 44.4102 32.2617V32.2617C43.7682 31.5772 42.6824 31.5741 42.0366 32.255L30.8028 44.0992C29.7905 45.1665 29.7858 46.8379 30.7921 47.9109L41.8764 59.7303C42.5212 60.418 43.6129 60.418 44.2578 59.7303V59.7303C44.8467 59.1023 44.8467 58.1249 44.2578 57.497L35.0744 47.7045L61.2955 47.7045C62.2368 47.7045 63 46.9414 63 46V46C63 45.0586 62.2368 44.2955 61.2955 44.2955L35.0744 44.2955Z" fill="white"/>
<defs>
<filter id="filter0_d" x="0" y="0" width="92" height="92" filterUnits="userSpaceOnUse" color-interpolation-filters="sRGB">
<feFlood flood-opacity="0" result="BackgroundImageFix"/>
<feColorMatrix in="SourceAlpha" type="matrix" values="0 0 0 0 0 0 0 0 0 0 0 0 0 0 0 0 0 0 127 0"/>
<feOffset/>
<feGaussianBlur stdDeviation="5"/>
<feColorMatrix type="matrix" values="0 0 0 0 0.0470588 0 0 0 0 0.0862745 0 0 0 0 0.321569 0 0 0 0.25 0"/>
<feBlend mode="normal" in2="BackgroundImageFix" result="effect1_dropShadow"/>
<feBlend mode="normal" in="SourceGraphic" in2="effect1_dropShadow" result="shape"/>
</filter>
</defs>
</svg>
