<svg width="92" height="92" viewBox="0 0 92 92" fill="none" xmlns="http://www.w3.org/2000/svg">
<g filter="url(#filter0_d)">
<circle cx="46" cy="46" r="36" fill="#3D83FD"/>
</g>
<path d="M56.9256 47.7045L47.5985 57.4972C47.0017 58.1237 46.9979 59.1071 47.5898 59.7383V59.7383C48.2318 60.4228 49.3176 60.4259 49.9634 59.745L61.1972 47.9008C62.2095 46.8335 62.2142 45.1621 61.2079 44.0891L50.1236 32.2697C49.4788 31.582 48.3871 31.582 47.7422 32.2697V32.2697C47.1533 32.8977 47.1533 33.8751 47.7422 34.503L56.9256 44.2955H30.7045C29.7632 44.2955 29 45.0586 29 46V46C29 46.9414 29.7632 47.7045 30.7045 47.7045H56.9256Z" fill="white"/>
<defs>
<filter id="filter0_d" x="0" y="0" width="92" height="92" filterUnits="userSpaceOnUse" color-interpolation-filters="sRGB">
<feFlood flood-opacity="0" result="BackgroundImageFix"/>
<feColorMatrix in="SourceAlpha" type="matrix" values="0 0 0 0 0 0 0 0 0 0 0 0 0 0 0 0 0 0 127 0"/>
<feOffset/>
<feGaussianBlur stdDeviation="5"/>
<feColorMatrix type="matrix" values="0 0 0 0 0.0470588 0 0 0 0 0.0862745 0 0 0 0 0.321569 0 0 0 0.25 0"/>
<feBlend mode="normal" in2="BackgroundImageFix" result="effect1_dropShadow"/>
<feBlend mode="normal" in="SourceGraphic" in2="effect1_dropShadow" result="shape"/>
</filter>
</defs>
</svg>
